{
    "asset": {
        "generator": "Khronos glTF Blender I/O v3.4.50",
        "version": "2.0"
    },
    "scene": 0,
    "scenes": [
        {
            "name": "Scene",
            "nodes": [
                0
            ]
        }
    ],
    "nodes": [
        {
            "mesh": 0,
            "name": "Cylinder",
            "rotation": [
                0,
                1,
                0,
                0
            ],
            "scale": [
                -0.08152209222316742,
                -0.3231600522994995,
                -0.08152209222316742
            ]
        }
    ],
    "materials": [
        {
            "doubleSided": true,
            "name": "Material.005",
            "pbrMetallicRoughness": {
                "baseColorFactor": [
                    0,
                    0,
                    0,
                    1
                ],
                "metallicFactor": 0,
                "roughnessFactor": 0.5
            }
        },
        {
            "doubleSided": true,
            "name": "Material.003",
            "pbrMetallicRoughness": {
                "baseColorFactor": [
                    0,
                    0,
                    0,
                    1
                ],
                "metallicFactor": 0,
                "roughnessFactor": 0.5
            }
        },
        {
            "doubleSided": true,
            "name": "Material.004",
            "pbrMetallicRoughness": {
                "baseColorFactor": [
                    0,
                    0,
                    0,
                    1
                ],
                "metallicFactor": 0,
                "roughnessFactor": 0.5
            }
        },
        {
            "doubleSided": true,
            "name": "Material",
            "pbrMetallicRoughness": {
                "baseColorFactor": [
                    0,
                    0,
                    0,
                    1
                ],
                "metallicFactor": 0,
                "roughnessFactor": 0.5
            }
        }
    ],
    "meshes": [
        {
            "name": "Cylinder.005",
            "primitives": [
                {
                    "attributes": {
                        "POSITION": 0,
                        "TEXCOORD_0": 1,
                        "NORMAL": 2
                    },
                    "indices": 3,
                    "material": 0
                },
                {
                    "attributes": {
                        "POSITION": 4,
                        "TEXCOORD_0": 5,
                        "NORMAL": 6
                    },
                    "indices": 7,
                    "material": 1
                },
                {
                    "attributes": {
                        "POSITION": 8,
                        "TEXCOORD_0": 9,
                        "NORMAL": 10
                    },
                    "indices": 11,
                    "material": 2
                },
                {
                    "attributes": {
                        "POSITION": 12,
                        "TEXCOORD_0": 13,
                        "NORMAL": 14
                    },
                    "indices": 15,
                    "material": 3
                }
            ]
        }
    ],
    "accessors": [
        {
            "bufferView": 0,
            "componentType": 5126,
            "count": 58,
            "max": [
                0.9749279022216797,
                1,
                0.9009688496589661
            ],
            "min": [
                -0.9749279022216797,
                -1,
                -1
            ],
            "type": "VEC3"
        },
        {
            "bufferView": 1,
            "componentType": 5126,
            "count": 58,
            "type": "VEC2"
        },
        {
            "bufferView": 2,
            "componentType": 5126,
            "count": 58,
            "type": "VEC3"
        },
        {
            "bufferView": 3,
            "componentType": 5123,
            "count": 114,
            "type": "SCALAR"
        },
        {
            "bufferView": 4,
            "componentType": 5126,
            "count": 56,
            "max": [
                5.755932331085205,
                1.1520671844482422,
                0.9930897355079651
            ],
            "min": [
                -5.755932331085205,
                0.9882127642631531,
                -0.9930897355079651
            ],
            "type": "VEC3"
        },
        {
            "bufferView": 5,
            "componentType": 5126,
            "count": 56,
            "type": "VEC2"
        },
        {
            "bufferView": 6,
            "componentType": 5126,
            "count": 56,
            "type": "VEC3"
        },
        {
            "bufferView": 7,
            "componentType": 5123,
            "count": 144,
            "type": "SCALAR"
        },
        {
            "bufferView": 8,
            "componentType": 5126,
            "count": 56,
            "max": [
                0.9930893182754517,
                1.1520673036575317,
                5.755932331085205
            ],
            "min": [
                -0.9930893182754517,
                0.9882127642631531,
                -5.755932331085205
            ],
            "type": "VEC3"
        },
        {
            "bufferView": 9,
            "componentType": 5126,
            "count": 56,
            "type": "VEC2"
        },
        {
            "bufferView": 10,
            "componentType": 5126,
            "count": 56,
            "type": "VEC3"
        },
        {
            "bufferView": 11,
            "componentType": 5123,
            "count": 144,
            "type": "SCALAR"
        },
        {
            "bufferView": 12,
            "componentType": 5126,
            "count": 58,
            "max": [
                8.746627807617188,
                -0.943141520023346,
                8.971563339233398
            ],
            "min": [
                -8.746627807617188,
                -1.1876990795135498,
                -8.971563339233398
            ],
            "type": "VEC3"
        },
        {
            "bufferView": 13,
            "componentType": 5126,
            "count": 58,
            "type": "VEC2"
        },
        {
            "bufferView": 14,
            "componentType": 5126,
            "count": 58,
            "type": "VEC3"
        },
        {
            "bufferView": 15,
            "componentType": 5123,
            "count": 156,
            "type": "SCALAR"
        }
    ],
    "bufferViews": [
        {
            "buffer": 0,
            "byteLength": 696,
            "byteOffset": 0,
            "target": 34962
        },
        {
            "buffer": 0,
            "byteLength": 464,
            "byteOffset": 696,
            "target": 34962
        },
        {
            "buffer": 0,
            "byteLength": 696,
            "byteOffset": 1160,
            "target": 34962
        },
        {
            "buffer": 0,
            "byteLength": 228,
            "byteOffset": 1856,
            "target": 34963
        },
        {
            "buffer": 0,
            "byteLength": 672,
            "byteOffset": 2084,
            "target": 34962
        },
        {
            "buffer": 0,
            "byteLength": 448,
            "byteOffset": 2756,
            "target": 34962
        },
        {
            "buffer": 0,
            "byteLength": 672,
            "byteOffset": 3204,
            "target": 34962
        },
        {
            "buffer": 0,
            "byteLength": 288,
            "byteOffset": 3876,
            "target": 34963
        },
        {
            "buffer": 0,
            "byteLength": 672,
            "byteOffset": 4164,
            "target": 34962
        },
        {
            "buffer": 0,
            "byteLength": 448,
            "byteOffset": 4836,
            "target": 34962
        },
        {
            "buffer": 0,
            "byteLength": 672,
            "byteOffset": 5284,
            "target": 34962
        },
        {
            "buffer": 0,
            "byteLength": 288,
            "byteOffset": 5956,
            "target": 34963
        },
        {
            "buffer": 0,
            "byteLength": 696,
            "byteOffset": 6244,
            "target": 34962
        },
        {
            "buffer": 0,
            "byteLength": 464,
            "byteOffset": 6940,
            "target": 34962
        },
        {
            "buffer": 0,
            "byteLength": 696,
            "byteOffset": 7404,
            "target": 34962
        },
        {
            "buffer": 0,
            "byteLength": 312,
            "byteOffset": 8100,
            "target": 34963
        }
    ],
    "buffers": [
        {
            "byteLength": 8412,
            "uri": "data:application/octet-stream;base64,"
        }
    ]
}